<svg xmlns="http://www.w3.org/2000/svg" viewBox="0 0 400 300" width="100%" height="100%">
  <defs>
    <radialGradient id="pri-bg" cx="50%" cy="50%" r="75%">
      <stop offset="0%" stop-color="#ffffff"/>
      <stop offset="100%" stop-color="#ecfdf5"/>
    </radialGradient>
    <linearGradient id="pri-bot" x1="0%" y1="0%" x2="100%" y2="0%">
      <stop offset="0%" stop-color="#047857"/>
      <stop offset="100%" stop-color="#065f46"/>
    </linearGradient>
    <filter id="shadow-3d" x="-20%" y="-20%" width="140%" height="140%">
      <feDropShadow dx="4" dy="12" stdDeviation="10" flood-color="#0f172a" flood-opacity="0.22"/>
    </filter>
  </defs>

  <rect width="400" height="300" rx="16" fill="url(#pri-bg)"/>
  <ellipse cx="200" cy="245" rx="55" ry="12" fill="#0f172a" opacity="0.15"/>

  <g filter="url(#shadow-3d)" transform="translate(155, 30)">
    <rect x="30" y="10" width="40" height="20" fill="#dc2626" rx="4"/>
    <rect x="15" y="30" width="70" height="175" rx="20" fill="url(#pri-bot)"/>

    <rect x="20" y="55" width="60" height="115" rx="8" fill="#ffffff"/>
    <text x="50" y="84" font-family="'Impact', sans-serif" font-weight="900" font-size="24" fill="#065f46" text-anchor="middle">PRIL</text>
    <text x="50" y="104" font-family="Arial, sans-serif" font-weight="900" font-size="11" fill="#dc2626" text-anchor="middle">KRAFT GEL</text>

    <!-- Lime Sparkle Graphic -->
    <path d="M 50 120 L 53 128 L 61 128 L 55 133 L 57 141 L 50 136 L 43 141 L 45 133 L 39 128 L 47 128 Z" fill="#34d399"/>

    <text x="50" y="160" font-family="Arial, sans-serif" font-weight="800" font-size="10" fill="#047857" text-anchor="middle">425 ml</text>
  </g>
</svg>
